<svg width="29" height="25" viewBox="0 0 29 25" fill="none" xmlns="http://www.w3.org/2000/svg">
<path fill-rule="evenodd" clip-rule="evenodd" d="M1.71906 18.7005V21.2005C1.71906 22.6005 2.91906 23.8005 4.31906 23.8005H6.71906C6.61906 21.0005 4.41906 18.8005 1.71906 18.7005Z" stroke="#9EA1C6" stroke-width="1.5" stroke-linecap="round" stroke-linejoin="round"/>
<path d="M1.70001 14V7.4C1.70001 6 2.80001 4.9 4.20001 4.9L13.4749 4.9" stroke="#9EA1C6" stroke-width="1.5" stroke-linecap="round" stroke-linejoin="round"/>
<path d="M26.3 17.9V21.3C26.3 22.7 25.2 23.8 23.8 23.8H4.20001C2.80001 23.8 1.70001 22.7 1.70001 21.3V17.7" stroke="#9EA1C6" stroke-width="1.5" stroke-linecap="round" stroke-linejoin="round"/>
<path d="M22.8945 4.9H23.7C25.1 4.9 26.2 6 26.2 7.4V13.3" stroke="#9EA1C6" stroke-width="1.5" stroke-linecap="round" stroke-linejoin="round"/>
<path fill-rule="evenodd" clip-rule="evenodd" d="M24.3 8.2H7.56726L19.2584 1.8C19.9584 1.4 20.8584 1.7 21.2584 2.4L24.3 8.2Z" stroke="#9EA1C6" stroke-width="1.5" stroke-linecap="round" stroke-linejoin="round"/>
<path d="M26.2 8.2H24.2H7.10001H5.20001" stroke="#9EA1C6" stroke-width="1.5" stroke-linecap="round" stroke-linejoin="round"/>
<path fill-rule="evenodd" clip-rule="evenodd" d="M27.5 13.3V17.9H22.4C21.1 17.9 20.1 16.9 20.1 15.6C20.1 15 20.4 14.4 20.8 14C21.2 13.6 21.8 13.3 22.4 13.3H27.5V13.3Z" stroke="#9EA1C6" stroke-width="1.5" stroke-linecap="round" stroke-linejoin="round"/>
<circle cx="23" cy="15.6" r="0.8" fill="#9EA1C6"/>
</svg>
